<svg width="390" height="722" viewBox="0 0 390 722" xmlns="http://www.w3.org/2000/svg" xmlns:xlink="http://www.w3.org/1999/xlink"><defs><rect id="path-1" x="0" y="99.619" width="7.852" height="32.769" rx="3.926"/><mask id="mask-2" maskContentUnits="userSpaceOnUse" maskUnits="objectBoundingBox" x="0" y="0" width="7.852" height="32.769" fill="#fff"><use xlink:href="#path-1"/></mask><rect id="path-3" x="0" y="169.09" width="7.852" height="57.674" rx="3.926"/><mask id="mask-4" maskContentUnits="userSpaceOnUse" maskUnits="objectBoundingBox" x="0" y="0" width="7.852" height="57.674" fill="#fff"><use xlink:href="#path-3"/></mask><rect id="path-5" x="0" y="241.183" width="7.852" height="57.674" rx="3.926"/><mask id="mask-6" maskContentUnits="userSpaceOnUse" maskUnits="objectBoundingBox" x="0" y="0" width="7.852" height="57.674" fill="#fff"><use xlink:href="#path-5"/></mask><rect id="path-7" x="382.148" y="169.09" width="7.852" height="57.674" rx="3.926"/><mask id="mask-8" maskContentUnits="userSpaceOnUse" maskUnits="objectBoundingBox" x="0" y="0" width="7.852" height="57.674" fill="#fff"><use xlink:href="#path-7"/></mask><path d="M4.5 52.385C4.5 23.453 27.959 0 56.883 0h277.734C363.547 0 387 23.445 387 52.385v616.811c0 28.931-23.459 52.385-52.383 52.385H56.883c-28.93 0-52.383-23.445-52.383-52.385V52.385zm15.125 28.191V621.58a5.998 5.998 0 0 0 6 5.999h337.998a6.002 6.002 0 0 0 6.002-5.999V80.576a5.998 5.998 0 0 0-6.002-5.998H25.626a6.002 6.002 0 0 0-6.001 5.998z" id="path-9"/><mask id="mask-10" maskContentUnits="userSpaceOnUse" maskUnits="objectBoundingBox" x="0" y="0" width="382.5" height="721.581" fill="#fff"><use xlink:href="#path-9"/></mask><rect id="path-11" x="164.899" y="39.004" width="61.51" height="14.738" rx="7.369"/><mask id="mask-12" maskContentUnits="userSpaceOnUse" maskUnits="objectBoundingBox" x="0" y="0" width="61.51" height="14.738" fill="#fff"><use xlink:href="#path-11"/></mask><rect id="path-13" x="142.5" y="658.639" width="106.5" height="30.003" rx="15.002"/><mask id="mask-14" maskContentUnits="userSpaceOnUse" maskUnits="objectBoundingBox" x="0" y="0" width="106.5" height="30.003" fill="#fff"><use xlink:href="#path-13"/></mask></defs><g id="Landing" stroke="none" stroke-width="1" fill="none" fill-rule="evenodd"><g id="device-top" stroke-width="2.619"><g id="Phone"><use id="btn-1" stroke="#E0E0E0" mask="url(#mask-2)" fill="#FFF" xlink:href="#path-1"/><use id="btn-2" stroke="#E0E0E0" mask="url(#mask-4)" fill="#FFF" xlink:href="#path-3"/><use id="btn-3" stroke="#E0E0E0" mask="url(#mask-6)" fill="#FFF" xlink:href="#path-5"/><use id="btn-4" stroke="#E0E0E0" mask="url(#mask-8)" fill="#FFF" xlink:href="#path-7"/><use id="Combined-Shape" stroke="#E0E0E0" mask="url(#mask-10)" fill="#F9F9F9" xlink:href="#path-9"/><use id="mic" stroke="#F9F9F9" mask="url(#mask-12)" fill="#E0E0E0" xlink:href="#path-11"/></g><use id="Rectangle-3" stroke="#E0E0E0" mask="url(#mask-14)" fill="#F9F9F9" xlink:href="#path-13"/></g></g></svg>